# xmcd
#
# Track frame offsets: 
#        150
#        36675
#        65026
#        96001
#        126977
#        156678
#        188179
#        201829
#        230554
#
# Disc length: 3476 seconds
#
# Revision: 1
# Processed by: cddbd v1.5.2PL0 Copyright (c) Steve Scherf et al.
# Submitted via: ExactAudioCopy v0.99pb5
#
DISCID=8d0d9209
DTITLE=New York Trio - Begin The Beguine
DYEAR=2005
DGENRE=Jazz
TTITLE0=You'd Be So Nice To Come Home To
TTITLE1=My Heart Belongs To Daddy
TTITLE2=So In Love
TTITLE3=Begin The Beguine
TTITLE4=I Love Paris
TTITLE5=From This Moment On
TTITLE6=Just One Of Those Things
TTITLE7=Easy To Love
TTITLE8=Every Time We Say Goodbye
EXTD=YEAR: 2005
EXTT0=
EXTT1=
EXTT2=
EXTT3=
EXTT4=
EXTT5=
EXTT6=
EXTT7=
EXTT8=
PLAYORDER=
